%TF.GenerationSoftware,KiCad,Pcbnew,6.0.4-6f826c9f35~116~ubuntu20.04.1*%
%TF.CreationDate,2022-04-29T21:15:19+02:00*%
%TF.ProjectId,pin-gm-kicad,70696e2d-676d-42d6-9b69-6361642e6b69,rev?*%
%TF.SameCoordinates,Original*%
%TF.FileFunction,Legend,Top*%
%TF.FilePolarity,Positive*%
%FSLAX46Y46*%
G04 Gerber Fmt 4.6, Leading zero omitted, Abs format (unit mm)*
G04 Created by KiCad (PCBNEW 6.0.4-6f826c9f35~116~ubuntu20.04.1) date 2022-04-29 21:15:19*
%MOMM*%
%LPD*%
G01*
G04 APERTURE LIST*
%ADD10C,0.575000*%
%ADD11C,0.300000*%
%ADD12C,0.600000*%
%ADD13C,0.500000*%
%ADD14C,0.150000*%
%ADD15C,0.120000*%
G04 APERTURE END LIST*
D10*
X76787500Y-53250000D02*
G75*
G03*
X76787500Y-53250000I-287500J0D01*
G01*
X78537500Y-79000000D02*
G75*
G03*
X78537500Y-79000000I-287500J0D01*
G01*
D11*
X108750000Y-57750000D02*
X109464285Y-57750000D01*
X108607142Y-58178571D02*
X109107142Y-56678571D01*
X109607142Y-58178571D01*
X110750000Y-57178571D02*
X110750000Y-58178571D01*
X110107142Y-57178571D02*
X110107142Y-57964285D01*
X110178571Y-58107142D01*
X110321428Y-58178571D01*
X110535714Y-58178571D01*
X110678571Y-58107142D01*
X110750000Y-58035714D01*
X112107142Y-58178571D02*
X112107142Y-56678571D01*
X112107142Y-58107142D02*
X111964285Y-58178571D01*
X111678571Y-58178571D01*
X111535714Y-58107142D01*
X111464285Y-58035714D01*
X111392857Y-57892857D01*
X111392857Y-57464285D01*
X111464285Y-57321428D01*
X111535714Y-57250000D01*
X111678571Y-57178571D01*
X111964285Y-57178571D01*
X112107142Y-57250000D01*
X112821428Y-58178571D02*
X112821428Y-57178571D01*
X112821428Y-56678571D02*
X112750000Y-56750000D01*
X112821428Y-56821428D01*
X112892857Y-56750000D01*
X112821428Y-56678571D01*
X112821428Y-56821428D01*
X113750000Y-58178571D02*
X113607142Y-58107142D01*
X113535714Y-58035714D01*
X113464285Y-57892857D01*
X113464285Y-57464285D01*
X113535714Y-57321428D01*
X113607142Y-57250000D01*
X113750000Y-57178571D01*
X113964285Y-57178571D01*
X114107142Y-57250000D01*
X114178571Y-57321428D01*
X114250000Y-57464285D01*
X114250000Y-57892857D01*
X114178571Y-58035714D01*
X114107142Y-58107142D01*
X113964285Y-58178571D01*
X113750000Y-58178571D01*
D12*
X106607142Y-76714285D02*
X108892857Y-76714285D01*
X107750000Y-77857142D02*
X107750000Y-75571428D01*
X106607142Y-68714285D02*
X108892857Y-68714285D01*
D13*
X96142857Y-89250000D02*
X95857142Y-89107142D01*
X95428571Y-89107142D01*
X95000000Y-89250000D01*
X94714285Y-89535714D01*
X94571428Y-89821428D01*
X94428571Y-90392857D01*
X94428571Y-90821428D01*
X94571428Y-91392857D01*
X94714285Y-91678571D01*
X95000000Y-91964285D01*
X95428571Y-92107142D01*
X95714285Y-92107142D01*
X96142857Y-91964285D01*
X96285714Y-91821428D01*
X96285714Y-90821428D01*
X95714285Y-90821428D01*
X98714285Y-91964285D02*
X98428571Y-92107142D01*
X97857142Y-92107142D01*
X97571428Y-91964285D01*
X97428571Y-91678571D01*
X97428571Y-90535714D01*
X97571428Y-90250000D01*
X97857142Y-90107142D01*
X98428571Y-90107142D01*
X98714285Y-90250000D01*
X98857142Y-90535714D01*
X98857142Y-90821428D01*
X97428571Y-91107142D01*
X100142857Y-92107142D02*
X100142857Y-90107142D01*
X100142857Y-89107142D02*
X100000000Y-89250000D01*
X100142857Y-89392857D01*
X100285714Y-89250000D01*
X100142857Y-89107142D01*
X100142857Y-89392857D01*
X102857142Y-90107142D02*
X102857142Y-92535714D01*
X102714285Y-92821428D01*
X102571428Y-92964285D01*
X102285714Y-93107142D01*
X101857142Y-93107142D01*
X101571428Y-92964285D01*
X102857142Y-91964285D02*
X102571428Y-92107142D01*
X102000000Y-92107142D01*
X101714285Y-91964285D01*
X101571428Y-91821428D01*
X101428571Y-91535714D01*
X101428571Y-90678571D01*
X101571428Y-90392857D01*
X101714285Y-90250000D01*
X102000000Y-90107142D01*
X102571428Y-90107142D01*
X102857142Y-90250000D01*
X105428571Y-91964285D02*
X105142857Y-92107142D01*
X104571428Y-92107142D01*
X104285714Y-91964285D01*
X104142857Y-91678571D01*
X104142857Y-90535714D01*
X104285714Y-90250000D01*
X104571428Y-90107142D01*
X105142857Y-90107142D01*
X105428571Y-90250000D01*
X105571428Y-90535714D01*
X105571428Y-90821428D01*
X104142857Y-91107142D01*
X106857142Y-92107142D02*
X106857142Y-90107142D01*
X106857142Y-90678571D02*
X107000000Y-90392857D01*
X107142857Y-90250000D01*
X107428571Y-90107142D01*
X107714285Y-90107142D01*
X109142857Y-92107142D02*
X108857142Y-91964285D01*
X108714285Y-91678571D01*
X108714285Y-89107142D01*
X111428571Y-91964285D02*
X111142857Y-92107142D01*
X110571428Y-92107142D01*
X110285714Y-91964285D01*
X110142857Y-91678571D01*
X110142857Y-90535714D01*
X110285714Y-90250000D01*
X110571428Y-90107142D01*
X111142857Y-90107142D01*
X111428571Y-90250000D01*
X111571428Y-90535714D01*
X111571428Y-90821428D01*
X110142857Y-91107142D01*
D14*
%TO.C,C5*%
X64333333Y-93107142D02*
X64285714Y-93154761D01*
X64142857Y-93202380D01*
X64047619Y-93202380D01*
X63904761Y-93154761D01*
X63809523Y-93059523D01*
X63761904Y-92964285D01*
X63714285Y-92773809D01*
X63714285Y-92630952D01*
X63761904Y-92440476D01*
X63809523Y-92345238D01*
X63904761Y-92250000D01*
X64047619Y-92202380D01*
X64142857Y-92202380D01*
X64285714Y-92250000D01*
X64333333Y-92297619D01*
X65238095Y-92202380D02*
X64761904Y-92202380D01*
X64714285Y-92678571D01*
X64761904Y-92630952D01*
X64857142Y-92583333D01*
X65095238Y-92583333D01*
X65190476Y-92630952D01*
X65238095Y-92678571D01*
X65285714Y-92773809D01*
X65285714Y-93011904D01*
X65238095Y-93107142D01*
X65190476Y-93154761D01*
X65095238Y-93202380D01*
X64857142Y-93202380D01*
X64761904Y-93154761D01*
X64714285Y-93107142D01*
%TO.C,RV1*%
X56654761Y-63452380D02*
X56321428Y-62976190D01*
X56083333Y-63452380D02*
X56083333Y-62452380D01*
X56464285Y-62452380D01*
X56559523Y-62500000D01*
X56607142Y-62547619D01*
X56654761Y-62642857D01*
X56654761Y-62785714D01*
X56607142Y-62880952D01*
X56559523Y-62928571D01*
X56464285Y-62976190D01*
X56083333Y-62976190D01*
X56940476Y-62452380D02*
X57273809Y-63452380D01*
X57607142Y-62452380D01*
X58464285Y-63452380D02*
X57892857Y-63452380D01*
X58178571Y-63452380D02*
X58178571Y-62452380D01*
X58083333Y-62595238D01*
X57988095Y-62690476D01*
X57892857Y-62738095D01*
%TO.C,C12*%
X101607142Y-65857142D02*
X101559523Y-65904761D01*
X101416666Y-65952380D01*
X101321428Y-65952380D01*
X101178571Y-65904761D01*
X101083333Y-65809523D01*
X101035714Y-65714285D01*
X100988095Y-65523809D01*
X100988095Y-65380952D01*
X101035714Y-65190476D01*
X101083333Y-65095238D01*
X101178571Y-65000000D01*
X101321428Y-64952380D01*
X101416666Y-64952380D01*
X101559523Y-65000000D01*
X101607142Y-65047619D01*
X102559523Y-65952380D02*
X101988095Y-65952380D01*
X102273809Y-65952380D02*
X102273809Y-64952380D01*
X102178571Y-65095238D01*
X102083333Y-65190476D01*
X101988095Y-65238095D01*
X102940476Y-65047619D02*
X102988095Y-65000000D01*
X103083333Y-64952380D01*
X103321428Y-64952380D01*
X103416666Y-65000000D01*
X103464285Y-65047619D01*
X103511904Y-65142857D01*
X103511904Y-65238095D01*
X103464285Y-65380952D01*
X102892857Y-65952380D01*
X103511904Y-65952380D01*
%TO.C,C4*%
X61333333Y-76357142D02*
X61285714Y-76404761D01*
X61142857Y-76452380D01*
X61047619Y-76452380D01*
X60904761Y-76404761D01*
X60809523Y-76309523D01*
X60761904Y-76214285D01*
X60714285Y-76023809D01*
X60714285Y-75880952D01*
X60761904Y-75690476D01*
X60809523Y-75595238D01*
X60904761Y-75500000D01*
X61047619Y-75452380D01*
X61142857Y-75452380D01*
X61285714Y-75500000D01*
X61333333Y-75547619D01*
X62190476Y-75785714D02*
X62190476Y-76452380D01*
X61952380Y-75404761D02*
X61714285Y-76119047D01*
X62333333Y-76119047D01*
%TO.C,C15*%
X101607142Y-81607142D02*
X101559523Y-81654761D01*
X101416666Y-81702380D01*
X101321428Y-81702380D01*
X101178571Y-81654761D01*
X101083333Y-81559523D01*
X101035714Y-81464285D01*
X100988095Y-81273809D01*
X100988095Y-81130952D01*
X101035714Y-80940476D01*
X101083333Y-80845238D01*
X101178571Y-80750000D01*
X101321428Y-80702380D01*
X101416666Y-80702380D01*
X101559523Y-80750000D01*
X101607142Y-80797619D01*
X102559523Y-81702380D02*
X101988095Y-81702380D01*
X102273809Y-81702380D02*
X102273809Y-80702380D01*
X102178571Y-80845238D01*
X102083333Y-80940476D01*
X101988095Y-80988095D01*
X103464285Y-80702380D02*
X102988095Y-80702380D01*
X102940476Y-81178571D01*
X102988095Y-81130952D01*
X103083333Y-81083333D01*
X103321428Y-81083333D01*
X103416666Y-81130952D01*
X103464285Y-81178571D01*
X103511904Y-81273809D01*
X103511904Y-81511904D01*
X103464285Y-81607142D01*
X103416666Y-81654761D01*
X103321428Y-81702380D01*
X103083333Y-81702380D01*
X102988095Y-81654761D01*
X102940476Y-81607142D01*
%TO.C,R10*%
X93952380Y-83892857D02*
X93476190Y-84226190D01*
X93952380Y-84464285D02*
X92952380Y-84464285D01*
X92952380Y-84083333D01*
X93000000Y-83988095D01*
X93047619Y-83940476D01*
X93142857Y-83892857D01*
X93285714Y-83892857D01*
X93380952Y-83940476D01*
X93428571Y-83988095D01*
X93476190Y-84083333D01*
X93476190Y-84464285D01*
X93952380Y-82940476D02*
X93952380Y-83511904D01*
X93952380Y-83226190D02*
X92952380Y-83226190D01*
X93095238Y-83321428D01*
X93190476Y-83416666D01*
X93238095Y-83511904D01*
X92952380Y-82321428D02*
X92952380Y-82226190D01*
X93000000Y-82130952D01*
X93047619Y-82083333D01*
X93142857Y-82035714D01*
X93333333Y-81988095D01*
X93571428Y-81988095D01*
X93761904Y-82035714D01*
X93857142Y-82083333D01*
X93904761Y-82130952D01*
X93952380Y-82226190D01*
X93952380Y-82321428D01*
X93904761Y-82416666D01*
X93857142Y-82464285D01*
X93761904Y-82511904D01*
X93571428Y-82559523D01*
X93333333Y-82559523D01*
X93142857Y-82511904D01*
X93047619Y-82464285D01*
X93000000Y-82416666D01*
X92952380Y-82321428D01*
%TO.C,R13*%
X91107142Y-91202380D02*
X90773809Y-90726190D01*
X90535714Y-91202380D02*
X90535714Y-90202380D01*
X90916666Y-90202380D01*
X91011904Y-90250000D01*
X91059523Y-90297619D01*
X91107142Y-90392857D01*
X91107142Y-90535714D01*
X91059523Y-90630952D01*
X91011904Y-90678571D01*
X90916666Y-90726190D01*
X90535714Y-90726190D01*
X92059523Y-91202380D02*
X91488095Y-91202380D01*
X91773809Y-91202380D02*
X91773809Y-90202380D01*
X91678571Y-90345238D01*
X91583333Y-90440476D01*
X91488095Y-90488095D01*
X92392857Y-90202380D02*
X93011904Y-90202380D01*
X92678571Y-90583333D01*
X92821428Y-90583333D01*
X92916666Y-90630952D01*
X92964285Y-90678571D01*
X93011904Y-90773809D01*
X93011904Y-91011904D01*
X92964285Y-91107142D01*
X92916666Y-91154761D01*
X92821428Y-91202380D01*
X92535714Y-91202380D01*
X92440476Y-91154761D01*
X92392857Y-91107142D01*
%TO.C,R3*%
X75583333Y-64452380D02*
X75250000Y-63976190D01*
X75011904Y-64452380D02*
X75011904Y-63452380D01*
X75392857Y-63452380D01*
X75488095Y-63500000D01*
X75535714Y-63547619D01*
X75583333Y-63642857D01*
X75583333Y-63785714D01*
X75535714Y-63880952D01*
X75488095Y-63928571D01*
X75392857Y-63976190D01*
X75011904Y-63976190D01*
X75916666Y-63452380D02*
X76535714Y-63452380D01*
X76202380Y-63833333D01*
X76345238Y-63833333D01*
X76440476Y-63880952D01*
X76488095Y-63928571D01*
X76535714Y-64023809D01*
X76535714Y-64261904D01*
X76488095Y-64357142D01*
X76440476Y-64404761D01*
X76345238Y-64452380D01*
X76059523Y-64452380D01*
X75964285Y-64404761D01*
X75916666Y-64357142D01*
%TO.C,R8*%
X76083333Y-79702380D02*
X75750000Y-79226190D01*
X75511904Y-79702380D02*
X75511904Y-78702380D01*
X75892857Y-78702380D01*
X75988095Y-78750000D01*
X76035714Y-78797619D01*
X76083333Y-78892857D01*
X76083333Y-79035714D01*
X76035714Y-79130952D01*
X75988095Y-79178571D01*
X75892857Y-79226190D01*
X75511904Y-79226190D01*
X76654761Y-79130952D02*
X76559523Y-79083333D01*
X76511904Y-79035714D01*
X76464285Y-78940476D01*
X76464285Y-78892857D01*
X76511904Y-78797619D01*
X76559523Y-78750000D01*
X76654761Y-78702380D01*
X76845238Y-78702380D01*
X76940476Y-78750000D01*
X76988095Y-78797619D01*
X77035714Y-78892857D01*
X77035714Y-78940476D01*
X76988095Y-79035714D01*
X76940476Y-79083333D01*
X76845238Y-79130952D01*
X76654761Y-79130952D01*
X76559523Y-79178571D01*
X76511904Y-79226190D01*
X76464285Y-79321428D01*
X76464285Y-79511904D01*
X76511904Y-79607142D01*
X76559523Y-79654761D01*
X76654761Y-79702380D01*
X76845238Y-79702380D01*
X76940476Y-79654761D01*
X76988095Y-79607142D01*
X77035714Y-79511904D01*
X77035714Y-79321428D01*
X76988095Y-79226190D01*
X76940476Y-79178571D01*
X76845238Y-79130952D01*
%TO.C,R1*%
X95083333Y-88202380D02*
X94750000Y-87726190D01*
X94511904Y-88202380D02*
X94511904Y-87202380D01*
X94892857Y-87202380D01*
X94988095Y-87250000D01*
X95035714Y-87297619D01*
X95083333Y-87392857D01*
X95083333Y-87535714D01*
X95035714Y-87630952D01*
X94988095Y-87678571D01*
X94892857Y-87726190D01*
X94511904Y-87726190D01*
X96035714Y-88202380D02*
X95464285Y-88202380D01*
X95750000Y-88202380D02*
X95750000Y-87202380D01*
X95654761Y-87345238D01*
X95559523Y-87440476D01*
X95464285Y-87488095D01*
%TO.C,R12*%
X79952380Y-87392857D02*
X79476190Y-87726190D01*
X79952380Y-87964285D02*
X78952380Y-87964285D01*
X78952380Y-87583333D01*
X79000000Y-87488095D01*
X79047619Y-87440476D01*
X79142857Y-87392857D01*
X79285714Y-87392857D01*
X79380952Y-87440476D01*
X79428571Y-87488095D01*
X79476190Y-87583333D01*
X79476190Y-87964285D01*
X79952380Y-86440476D02*
X79952380Y-87011904D01*
X79952380Y-86726190D02*
X78952380Y-86726190D01*
X79095238Y-86821428D01*
X79190476Y-86916666D01*
X79238095Y-87011904D01*
X79047619Y-86059523D02*
X79000000Y-86011904D01*
X78952380Y-85916666D01*
X78952380Y-85678571D01*
X79000000Y-85583333D01*
X79047619Y-85535714D01*
X79142857Y-85488095D01*
X79238095Y-85488095D01*
X79380952Y-85535714D01*
X79952380Y-86107142D01*
X79952380Y-85488095D01*
%TO.C,R2*%
X76333333Y-52452380D02*
X76000000Y-51976190D01*
X75761904Y-52452380D02*
X75761904Y-51452380D01*
X76142857Y-51452380D01*
X76238095Y-51500000D01*
X76285714Y-51547619D01*
X76333333Y-51642857D01*
X76333333Y-51785714D01*
X76285714Y-51880952D01*
X76238095Y-51928571D01*
X76142857Y-51976190D01*
X75761904Y-51976190D01*
X76714285Y-51547619D02*
X76761904Y-51500000D01*
X76857142Y-51452380D01*
X77095238Y-51452380D01*
X77190476Y-51500000D01*
X77238095Y-51547619D01*
X77285714Y-51642857D01*
X77285714Y-51738095D01*
X77238095Y-51880952D01*
X76666666Y-52452380D01*
X77285714Y-52452380D01*
%TO.C,L1*%
X107333333Y-82702380D02*
X106857142Y-82702380D01*
X106857142Y-81702380D01*
X108190476Y-82702380D02*
X107619047Y-82702380D01*
X107904761Y-82702380D02*
X107904761Y-81702380D01*
X107809523Y-81845238D01*
X107714285Y-81940476D01*
X107619047Y-81988095D01*
%TO.C,R9*%
X104333333Y-58452380D02*
X104000000Y-57976190D01*
X103761904Y-58452380D02*
X103761904Y-57452380D01*
X104142857Y-57452380D01*
X104238095Y-57500000D01*
X104285714Y-57547619D01*
X104333333Y-57642857D01*
X104333333Y-57785714D01*
X104285714Y-57880952D01*
X104238095Y-57928571D01*
X104142857Y-57976190D01*
X103761904Y-57976190D01*
X104809523Y-58452380D02*
X105000000Y-58452380D01*
X105095238Y-58404761D01*
X105142857Y-58357142D01*
X105238095Y-58214285D01*
X105285714Y-58023809D01*
X105285714Y-57642857D01*
X105238095Y-57547619D01*
X105190476Y-57500000D01*
X105095238Y-57452380D01*
X104904761Y-57452380D01*
X104809523Y-57500000D01*
X104761904Y-57547619D01*
X104714285Y-57642857D01*
X104714285Y-57880952D01*
X104761904Y-57976190D01*
X104809523Y-58023809D01*
X104904761Y-58071428D01*
X105095238Y-58071428D01*
X105190476Y-58023809D01*
X105238095Y-57976190D01*
X105285714Y-57880952D01*
%TO.C,C14*%
X98107142Y-81607142D02*
X98059523Y-81654761D01*
X97916666Y-81702380D01*
X97821428Y-81702380D01*
X97678571Y-81654761D01*
X97583333Y-81559523D01*
X97535714Y-81464285D01*
X97488095Y-81273809D01*
X97488095Y-81130952D01*
X97535714Y-80940476D01*
X97583333Y-80845238D01*
X97678571Y-80750000D01*
X97821428Y-80702380D01*
X97916666Y-80702380D01*
X98059523Y-80750000D01*
X98107142Y-80797619D01*
X99059523Y-81702380D02*
X98488095Y-81702380D01*
X98773809Y-81702380D02*
X98773809Y-80702380D01*
X98678571Y-80845238D01*
X98583333Y-80940476D01*
X98488095Y-80988095D01*
X99916666Y-81035714D02*
X99916666Y-81702380D01*
X99678571Y-80654761D02*
X99440476Y-81369047D01*
X100059523Y-81369047D01*
%TO.C,R6*%
X73583333Y-88702380D02*
X73250000Y-88226190D01*
X73011904Y-88702380D02*
X73011904Y-87702380D01*
X73392857Y-87702380D01*
X73488095Y-87750000D01*
X73535714Y-87797619D01*
X73583333Y-87892857D01*
X73583333Y-88035714D01*
X73535714Y-88130952D01*
X73488095Y-88178571D01*
X73392857Y-88226190D01*
X73011904Y-88226190D01*
X74440476Y-87702380D02*
X74250000Y-87702380D01*
X74154761Y-87750000D01*
X74107142Y-87797619D01*
X74011904Y-87940476D01*
X73964285Y-88130952D01*
X73964285Y-88511904D01*
X74011904Y-88607142D01*
X74059523Y-88654761D01*
X74154761Y-88702380D01*
X74345238Y-88702380D01*
X74440476Y-88654761D01*
X74488095Y-88607142D01*
X74535714Y-88511904D01*
X74535714Y-88273809D01*
X74488095Y-88178571D01*
X74440476Y-88130952D01*
X74345238Y-88083333D01*
X74154761Y-88083333D01*
X74059523Y-88130952D01*
X74011904Y-88178571D01*
X73964285Y-88273809D01*
%TO.C,C10*%
X79857142Y-90642857D02*
X79904761Y-90690476D01*
X79952380Y-90833333D01*
X79952380Y-90928571D01*
X79904761Y-91071428D01*
X79809523Y-91166666D01*
X79714285Y-91214285D01*
X79523809Y-91261904D01*
X79380952Y-91261904D01*
X79190476Y-91214285D01*
X79095238Y-91166666D01*
X79000000Y-91071428D01*
X78952380Y-90928571D01*
X78952380Y-90833333D01*
X79000000Y-90690476D01*
X79047619Y-90642857D01*
X79952380Y-89690476D02*
X79952380Y-90261904D01*
X79952380Y-89976190D02*
X78952380Y-89976190D01*
X79095238Y-90071428D01*
X79190476Y-90166666D01*
X79238095Y-90261904D01*
X78952380Y-89071428D02*
X78952380Y-88976190D01*
X79000000Y-88880952D01*
X79047619Y-88833333D01*
X79142857Y-88785714D01*
X79333333Y-88738095D01*
X79571428Y-88738095D01*
X79761904Y-88785714D01*
X79857142Y-88833333D01*
X79904761Y-88880952D01*
X79952380Y-88976190D01*
X79952380Y-89071428D01*
X79904761Y-89166666D01*
X79857142Y-89214285D01*
X79761904Y-89261904D01*
X79571428Y-89309523D01*
X79333333Y-89309523D01*
X79142857Y-89261904D01*
X79047619Y-89214285D01*
X79000000Y-89166666D01*
X78952380Y-89071428D01*
%TO.C,U2*%
X84488095Y-78452380D02*
X84488095Y-79261904D01*
X84535714Y-79357142D01*
X84583333Y-79404761D01*
X84678571Y-79452380D01*
X84869047Y-79452380D01*
X84964285Y-79404761D01*
X85011904Y-79357142D01*
X85059523Y-79261904D01*
X85059523Y-78452380D01*
X85488095Y-78547619D02*
X85535714Y-78500000D01*
X85630952Y-78452380D01*
X85869047Y-78452380D01*
X85964285Y-78500000D01*
X86011904Y-78547619D01*
X86059523Y-78642857D01*
X86059523Y-78738095D01*
X86011904Y-78880952D01*
X85440476Y-79452380D01*
X86059523Y-79452380D01*
%TO.C,R4*%
X62333333Y-66702380D02*
X62000000Y-66226190D01*
X61761904Y-66702380D02*
X61761904Y-65702380D01*
X62142857Y-65702380D01*
X62238095Y-65750000D01*
X62285714Y-65797619D01*
X62333333Y-65892857D01*
X62333333Y-66035714D01*
X62285714Y-66130952D01*
X62238095Y-66178571D01*
X62142857Y-66226190D01*
X61761904Y-66226190D01*
X63190476Y-66035714D02*
X63190476Y-66702380D01*
X62952380Y-65654761D02*
X62714285Y-66369047D01*
X63333333Y-66369047D01*
%TO.C,C3*%
X68333333Y-87357142D02*
X68285714Y-87404761D01*
X68142857Y-87452380D01*
X68047619Y-87452380D01*
X67904761Y-87404761D01*
X67809523Y-87309523D01*
X67761904Y-87214285D01*
X67714285Y-87023809D01*
X67714285Y-86880952D01*
X67761904Y-86690476D01*
X67809523Y-86595238D01*
X67904761Y-86500000D01*
X68047619Y-86452380D01*
X68142857Y-86452380D01*
X68285714Y-86500000D01*
X68333333Y-86547619D01*
X68666666Y-86452380D02*
X69285714Y-86452380D01*
X68952380Y-86833333D01*
X69095238Y-86833333D01*
X69190476Y-86880952D01*
X69238095Y-86928571D01*
X69285714Y-87023809D01*
X69285714Y-87261904D01*
X69238095Y-87357142D01*
X69190476Y-87404761D01*
X69095238Y-87452380D01*
X68809523Y-87452380D01*
X68714285Y-87404761D01*
X68666666Y-87357142D01*
%TO.C,R11*%
X93857142Y-94202380D02*
X93523809Y-93726190D01*
X93285714Y-94202380D02*
X93285714Y-93202380D01*
X93666666Y-93202380D01*
X93761904Y-93250000D01*
X93809523Y-93297619D01*
X93857142Y-93392857D01*
X93857142Y-93535714D01*
X93809523Y-93630952D01*
X93761904Y-93678571D01*
X93666666Y-93726190D01*
X93285714Y-93726190D01*
X94809523Y-94202380D02*
X94238095Y-94202380D01*
X94523809Y-94202380D02*
X94523809Y-93202380D01*
X94428571Y-93345238D01*
X94333333Y-93440476D01*
X94238095Y-93488095D01*
X95761904Y-94202380D02*
X95190476Y-94202380D01*
X95476190Y-94202380D02*
X95476190Y-93202380D01*
X95380952Y-93345238D01*
X95285714Y-93440476D01*
X95190476Y-93488095D01*
%TO.C,C6*%
X103833333Y-52007142D02*
X103785714Y-52054761D01*
X103642857Y-52102380D01*
X103547619Y-52102380D01*
X103404761Y-52054761D01*
X103309523Y-51959523D01*
X103261904Y-51864285D01*
X103214285Y-51673809D01*
X103214285Y-51530952D01*
X103261904Y-51340476D01*
X103309523Y-51245238D01*
X103404761Y-51150000D01*
X103547619Y-51102380D01*
X103642857Y-51102380D01*
X103785714Y-51150000D01*
X103833333Y-51197619D01*
X104690476Y-51102380D02*
X104500000Y-51102380D01*
X104404761Y-51150000D01*
X104357142Y-51197619D01*
X104261904Y-51340476D01*
X104214285Y-51530952D01*
X104214285Y-51911904D01*
X104261904Y-52007142D01*
X104309523Y-52054761D01*
X104404761Y-52102380D01*
X104595238Y-52102380D01*
X104690476Y-52054761D01*
X104738095Y-52007142D01*
X104785714Y-51911904D01*
X104785714Y-51673809D01*
X104738095Y-51578571D01*
X104690476Y-51530952D01*
X104595238Y-51483333D01*
X104404761Y-51483333D01*
X104309523Y-51530952D01*
X104261904Y-51578571D01*
X104214285Y-51673809D01*
%TO.C,R5*%
X80702380Y-93166666D02*
X80226190Y-93500000D01*
X80702380Y-93738095D02*
X79702380Y-93738095D01*
X79702380Y-93357142D01*
X79750000Y-93261904D01*
X79797619Y-93214285D01*
X79892857Y-93166666D01*
X80035714Y-93166666D01*
X80130952Y-93214285D01*
X80178571Y-93261904D01*
X80226190Y-93357142D01*
X80226190Y-93738095D01*
X79702380Y-92261904D02*
X79702380Y-92738095D01*
X80178571Y-92785714D01*
X80130952Y-92738095D01*
X80083333Y-92642857D01*
X80083333Y-92404761D01*
X80130952Y-92309523D01*
X80178571Y-92261904D01*
X80273809Y-92214285D01*
X80511904Y-92214285D01*
X80607142Y-92261904D01*
X80654761Y-92309523D01*
X80702380Y-92404761D01*
X80702380Y-92642857D01*
X80654761Y-92738095D01*
X80607142Y-92785714D01*
%TO.C,C1*%
X76333333Y-88607142D02*
X76285714Y-88654761D01*
X76142857Y-88702380D01*
X76047619Y-88702380D01*
X75904761Y-88654761D01*
X75809523Y-88559523D01*
X75761904Y-88464285D01*
X75714285Y-88273809D01*
X75714285Y-88130952D01*
X75761904Y-87940476D01*
X75809523Y-87845238D01*
X75904761Y-87750000D01*
X76047619Y-87702380D01*
X76142857Y-87702380D01*
X76285714Y-87750000D01*
X76333333Y-87797619D01*
X77285714Y-88702380D02*
X76714285Y-88702380D01*
X77000000Y-88702380D02*
X77000000Y-87702380D01*
X76904761Y-87845238D01*
X76809523Y-87940476D01*
X76714285Y-87988095D01*
%TO.C,C13*%
X87607142Y-91107142D02*
X87559523Y-91154761D01*
X87416666Y-91202380D01*
X87321428Y-91202380D01*
X87178571Y-91154761D01*
X87083333Y-91059523D01*
X87035714Y-90964285D01*
X86988095Y-90773809D01*
X86988095Y-90630952D01*
X87035714Y-90440476D01*
X87083333Y-90345238D01*
X87178571Y-90250000D01*
X87321428Y-90202380D01*
X87416666Y-90202380D01*
X87559523Y-90250000D01*
X87607142Y-90297619D01*
X88559523Y-91202380D02*
X87988095Y-91202380D01*
X88273809Y-91202380D02*
X88273809Y-90202380D01*
X88178571Y-90345238D01*
X88083333Y-90440476D01*
X87988095Y-90488095D01*
X88892857Y-90202380D02*
X89511904Y-90202380D01*
X89178571Y-90583333D01*
X89321428Y-90583333D01*
X89416666Y-90630952D01*
X89464285Y-90678571D01*
X89511904Y-90773809D01*
X89511904Y-91011904D01*
X89464285Y-91107142D01*
X89416666Y-91154761D01*
X89321428Y-91202380D01*
X89035714Y-91202380D01*
X88940476Y-91154761D01*
X88892857Y-91107142D01*
%TO.C,C2*%
X71333333Y-60107142D02*
X71285714Y-60154761D01*
X71142857Y-60202380D01*
X71047619Y-60202380D01*
X70904761Y-60154761D01*
X70809523Y-60059523D01*
X70761904Y-59964285D01*
X70714285Y-59773809D01*
X70714285Y-59630952D01*
X70761904Y-59440476D01*
X70809523Y-59345238D01*
X70904761Y-59250000D01*
X71047619Y-59202380D01*
X71142857Y-59202380D01*
X71285714Y-59250000D01*
X71333333Y-59297619D01*
X71714285Y-59297619D02*
X71761904Y-59250000D01*
X71857142Y-59202380D01*
X72095238Y-59202380D01*
X72190476Y-59250000D01*
X72238095Y-59297619D01*
X72285714Y-59392857D01*
X72285714Y-59488095D01*
X72238095Y-59630952D01*
X71666666Y-60202380D01*
X72285714Y-60202380D01*
%TO.C,C8*%
X71833333Y-81357142D02*
X71785714Y-81404761D01*
X71642857Y-81452380D01*
X71547619Y-81452380D01*
X71404761Y-81404761D01*
X71309523Y-81309523D01*
X71261904Y-81214285D01*
X71214285Y-81023809D01*
X71214285Y-80880952D01*
X71261904Y-80690476D01*
X71309523Y-80595238D01*
X71404761Y-80500000D01*
X71547619Y-80452380D01*
X71642857Y-80452380D01*
X71785714Y-80500000D01*
X71833333Y-80547619D01*
X72404761Y-80880952D02*
X72309523Y-80833333D01*
X72261904Y-80785714D01*
X72214285Y-80690476D01*
X72214285Y-80642857D01*
X72261904Y-80547619D01*
X72309523Y-80500000D01*
X72404761Y-80452380D01*
X72595238Y-80452380D01*
X72690476Y-80500000D01*
X72738095Y-80547619D01*
X72785714Y-80642857D01*
X72785714Y-80690476D01*
X72738095Y-80785714D01*
X72690476Y-80833333D01*
X72595238Y-80880952D01*
X72404761Y-80880952D01*
X72309523Y-80928571D01*
X72261904Y-80976190D01*
X72214285Y-81071428D01*
X72214285Y-81261904D01*
X72261904Y-81357142D01*
X72309523Y-81404761D01*
X72404761Y-81452380D01*
X72595238Y-81452380D01*
X72690476Y-81404761D01*
X72738095Y-81357142D01*
X72785714Y-81261904D01*
X72785714Y-81071428D01*
X72738095Y-80976190D01*
X72690476Y-80928571D01*
X72595238Y-80880952D01*
%TO.C,R7*%
X81333333Y-64452380D02*
X81000000Y-63976190D01*
X80761904Y-64452380D02*
X80761904Y-63452380D01*
X81142857Y-63452380D01*
X81238095Y-63500000D01*
X81285714Y-63547619D01*
X81333333Y-63642857D01*
X81333333Y-63785714D01*
X81285714Y-63880952D01*
X81238095Y-63928571D01*
X81142857Y-63976190D01*
X80761904Y-63976190D01*
X81666666Y-63452380D02*
X82333333Y-63452380D01*
X81904761Y-64452380D01*
%TO.C,C9*%
X93833333Y-80857142D02*
X93785714Y-80904761D01*
X93642857Y-80952380D01*
X93547619Y-80952380D01*
X93404761Y-80904761D01*
X93309523Y-80809523D01*
X93261904Y-80714285D01*
X93214285Y-80523809D01*
X93214285Y-80380952D01*
X93261904Y-80190476D01*
X93309523Y-80095238D01*
X93404761Y-80000000D01*
X93547619Y-79952380D01*
X93642857Y-79952380D01*
X93785714Y-80000000D01*
X93833333Y-80047619D01*
X94309523Y-80952380D02*
X94500000Y-80952380D01*
X94595238Y-80904761D01*
X94642857Y-80857142D01*
X94738095Y-80714285D01*
X94785714Y-80523809D01*
X94785714Y-80142857D01*
X94738095Y-80047619D01*
X94690476Y-80000000D01*
X94595238Y-79952380D01*
X94404761Y-79952380D01*
X94309523Y-80000000D01*
X94261904Y-80047619D01*
X94214285Y-80142857D01*
X94214285Y-80380952D01*
X94261904Y-80476190D01*
X94309523Y-80523809D01*
X94404761Y-80571428D01*
X94595238Y-80571428D01*
X94690476Y-80523809D01*
X94738095Y-80476190D01*
X94785714Y-80380952D01*
%TO.C,U1*%
X78238095Y-52702380D02*
X78238095Y-53511904D01*
X78285714Y-53607142D01*
X78333333Y-53654761D01*
X78428571Y-53702380D01*
X78619047Y-53702380D01*
X78714285Y-53654761D01*
X78761904Y-53607142D01*
X78809523Y-53511904D01*
X78809523Y-52702380D01*
X79809523Y-53702380D02*
X79238095Y-53702380D01*
X79523809Y-53702380D02*
X79523809Y-52702380D01*
X79428571Y-52845238D01*
X79333333Y-52940476D01*
X79238095Y-52988095D01*
%TO.C,C7*%
X64333333Y-90607142D02*
X64285714Y-90654761D01*
X64142857Y-90702380D01*
X64047619Y-90702380D01*
X63904761Y-90654761D01*
X63809523Y-90559523D01*
X63761904Y-90464285D01*
X63714285Y-90273809D01*
X63714285Y-90130952D01*
X63761904Y-89940476D01*
X63809523Y-89845238D01*
X63904761Y-89750000D01*
X64047619Y-89702380D01*
X64142857Y-89702380D01*
X64285714Y-89750000D01*
X64333333Y-89797619D01*
X64666666Y-89702380D02*
X65333333Y-89702380D01*
X64904761Y-90702380D01*
%TO.C,C11*%
X105607142Y-60107142D02*
X105559523Y-60154761D01*
X105416666Y-60202380D01*
X105321428Y-60202380D01*
X105178571Y-60154761D01*
X105083333Y-60059523D01*
X105035714Y-59964285D01*
X104988095Y-59773809D01*
X104988095Y-59630952D01*
X105035714Y-59440476D01*
X105083333Y-59345238D01*
X105178571Y-59250000D01*
X105321428Y-59202380D01*
X105416666Y-59202380D01*
X105559523Y-59250000D01*
X105607142Y-59297619D01*
X106559523Y-60202380D02*
X105988095Y-60202380D01*
X106273809Y-60202380D02*
X106273809Y-59202380D01*
X106178571Y-59345238D01*
X106083333Y-59440476D01*
X105988095Y-59488095D01*
X107511904Y-60202380D02*
X106940476Y-60202380D01*
X107226190Y-60202380D02*
X107226190Y-59202380D01*
X107130952Y-59345238D01*
X107035714Y-59440476D01*
X106940476Y-59488095D01*
D15*
%TO.C,D2*%
X89500000Y-76000000D02*
X89500000Y-74500000D01*
X90000000Y-74250000D02*
X91250000Y-73000000D01*
X88750000Y-75250000D02*
X89500000Y-76000000D01*
X89250000Y-74250000D02*
X89750000Y-74250000D01*
X89250000Y-74250000D02*
X89250000Y-74000000D01*
X89500000Y-74500000D02*
X88750000Y-75250000D01*
X90000000Y-74250000D02*
X90500000Y-74250000D01*
X87750000Y-75250000D02*
X90250000Y-75250000D01*
X90000000Y-74250000D02*
X90000000Y-73750000D01*
X88750000Y-76000000D02*
X88750000Y-74500000D01*
X89250000Y-74250000D02*
X89250000Y-73750000D01*
X90000000Y-74250000D02*
X90000000Y-74000000D01*
X89250000Y-74250000D02*
X90500000Y-73000000D01*
%TO.C,D3*%
X80000000Y-70750000D02*
X78750000Y-72000000D01*
X80500000Y-70500000D02*
X81250000Y-69750000D01*
X80000000Y-70750000D02*
X80000000Y-71250000D01*
X80000000Y-70750000D02*
X79500000Y-70750000D01*
X82250000Y-69750000D02*
X79750000Y-69750000D01*
X81250000Y-69750000D02*
X80500000Y-69000000D01*
X80500000Y-69000000D02*
X80500000Y-70500000D01*
X80000000Y-70750000D02*
X80000000Y-71000000D01*
X80750000Y-70750000D02*
X80250000Y-70750000D01*
X80750000Y-70750000D02*
X80750000Y-71250000D01*
X80750000Y-70750000D02*
X79500000Y-72000000D01*
X80750000Y-70750000D02*
X80750000Y-71000000D01*
X81250000Y-69000000D02*
X81250000Y-70500000D01*
%TO.C,D4*%
X89500000Y-70500000D02*
X89500000Y-69000000D01*
X89250000Y-68750000D02*
X89750000Y-68750000D01*
X89250000Y-68750000D02*
X90500000Y-67500000D01*
X89250000Y-68750000D02*
X89250000Y-68500000D01*
X90000000Y-68750000D02*
X90000000Y-68250000D01*
X89250000Y-68750000D02*
X89250000Y-68250000D01*
X90000000Y-68750000D02*
X90000000Y-68500000D01*
X90000000Y-68750000D02*
X91250000Y-67500000D01*
X89500000Y-69000000D02*
X88750000Y-69750000D01*
X88750000Y-69750000D02*
X89500000Y-70500000D01*
X88750000Y-70500000D02*
X88750000Y-69000000D01*
X90000000Y-68750000D02*
X90500000Y-68750000D01*
X87750000Y-69750000D02*
X90250000Y-69750000D01*
%TO.C,D1*%
X80500000Y-76000000D02*
X81250000Y-75250000D01*
X80000000Y-76250000D02*
X79500000Y-76250000D01*
X80750000Y-76250000D02*
X80750000Y-76750000D01*
X82250000Y-75250000D02*
X79750000Y-75250000D01*
X81250000Y-74500000D02*
X81250000Y-76000000D01*
X80750000Y-76250000D02*
X80250000Y-76250000D01*
X80500000Y-74500000D02*
X80500000Y-76000000D01*
X80000000Y-76250000D02*
X80000000Y-76750000D01*
X80000000Y-76250000D02*
X80000000Y-76500000D01*
X80750000Y-76250000D02*
X80750000Y-76500000D01*
X80000000Y-76250000D02*
X78750000Y-77500000D01*
X80750000Y-76250000D02*
X79500000Y-77500000D01*
X81250000Y-75250000D02*
X80500000Y-74500000D01*
%TD*%
M02*
