M48
; DRILL file {KiCad 6.0.4-6f826c9f35~116~ubuntu20.04.1} date 2022. ápr. 29., péntek, 21:15:21 CEST
; FORMAT={-:-/ absolute / metric / decimal}
; #@! TF.CreationDate,2022-04-29T21:15:21+02:00
; #@! TF.GenerationSoftware,Kicad,Pcbnew,6.0.4-6f826c9f35~116~ubuntu20.04.1
; #@! TF.FileFunction,Plated,1,2,PTH
FMAT,2
METRIC
; #@! TA.AperFunction,Plated,PTH,ViaDrill
T1C0.700
; #@! TA.AperFunction,Plated,PTH,ComponentDrill
T2C1.000
; #@! TA.AperFunction,Plated,PTH,ComponentDrill
T3C1.300
; #@! TA.AperFunction,Plated,PTH,ComponentDrill
T4C2.000
; #@! TA.AperFunction,Plated,PTH,ComponentDrill
T5C4.500
%
G90
G05
T1
X56.5Y-52.5
X56.5Y-92.5
X57.75Y-60.5
X61.25Y-57.75
X64.75Y-56.5
X66.5Y-64.25
X69.0Y-56.5
X74.25Y-58.0
X75.0Y-88.25
X78.25Y-56.25
X79.25Y-87.0
X79.75Y-79.0
X82.5Y-83.25
X83.25Y-78.75
X83.971Y-53.0
X83.971Y-58.983
X86.5Y-85.75
X86.5Y-87.5
X87.0Y-80.0
X87.0Y-82.0
X87.0Y-92.75
X87.25Y-84.25
X89.0Y-62.0
X89.75Y-54.75
X90.25Y-78.75
X92.0Y-59.5
X94.0Y-56.0
X94.75Y-79.0
X95.5Y-60.5
X97.5Y-88.0
X99.25Y-54.75
X100.5Y-62.25
X104.994Y-76.994
X106.0Y-56.5
X108.0Y-74.0
X108.25Y-51.75
X109.0Y-84.0
X113.25Y-92.25
T2
X78.5Y-69.75
X78.5Y-75.25
X83.5Y-69.75
X83.5Y-75.25
X86.5Y-69.75
X86.5Y-75.25
X91.5Y-69.75
X91.5Y-75.25
T3
X56.75Y-56.5
X61.5Y-78.75
X61.5Y-88.75
X66.5Y-83.75
X66.75Y-54.0
X66.75Y-59.0
T4
X112.0Y-53.5
X112.0Y-61.5
X112.0Y-68.75
X112.0Y-76.75
T5
X70.0Y-72.5
X100.0Y-72.5
T0
M30
